<?xml version="1.0" encoding="UTF-8" standalone="no" ?>
<!DOCTYPE svg PUBLIC "-//W3C//DTD SVG 1.1//EN" "http://www.w3.org/Graphics/SVG/1.1/DTD/svg11.dtd">
<svg xmlns="http://www.w3.org/2000/svg" xmlns:xlink="http://www.w3.org/1999/xlink" version="1.1" width="1080" height="1080" viewBox="0 0 1080 1080" xml:space="preserve">
<desc>Created with Fabric.js 5.2.4</desc>
<defs>
</defs>
<rect x="0" y="0" width="100%" height="100%" fill="transparent"></rect>
<g transform="matrix(1 0 0 1 540 540)" id="0bba6ca1-16da-4caa-88a0-93ffacbbcffd"  >
<rect style="stroke: none; stroke-width: 1; stroke-dasharray: none; stroke-linecap: butt; stroke-dashoffset: 0; stroke-linejoin: miter; stroke-miterlimit: 4; fill: rgb(255,255,255); fill-rule: nonzero; opacity: 1;" vector-effect="non-scaling-stroke"  x="-540" y="-540" rx="0" ry="0" width="1080" height="1080" />
</g>
<g transform="matrix(1 0 0 1 540 540)" id="f9cf78c2-3211-4745-a8be-89354f99bd70"  >
</g>
<g transform="matrix(19.84 0 0 19.84 540 540)" id="d1737be0-84a3-43a3-8cbb-fe268f2665b9"  >
<path style="stroke: rgb(0,0,0); stroke-width: 0; stroke-dasharray: none; stroke-linecap: butt; stroke-dashoffset: 0; stroke-linejoin: miter; stroke-miterlimit: 4; fill: rgb(0,0,0); fill-rule: nonzero; opacity: 1;" vector-effect="non-scaling-stroke"  transform=" translate(-24.98, -25.5)" d="M 49.729 11 L 48.879 11 C 47.827999999999996 11 46.838 11.49 46.199 12.324 L 37.498999999999995 23.701 L 28.798999999999996 12.324 C 28.161999999999995 11.49 27.170999999999996 11 26.120999999999995 11 L 25.270999999999994 11 L 36.24199999999999 25.346 L 25.03599999999999 40 L 25.885999999999992 40 C 26.93699999999999 40 27.926999999999992 39.51 28.56499999999999 38.676 L 37.49999999999999 26.992000000000004 L 46.434999999999995 38.676 C 47.07299999999999 39.510000000000005 48.062999999999995 40 49.114 40 L 49.964 40 L 38.757999999999996 25.346 z M 21.289 34.242 C 18.735000000000003 38.123 13.707 40.111999999999995 8.900000000000002 38.358 C 4.671000000000002 36.815 2.0000000000000018 32.611 2.0000000000000018 28.108999999999995 L 2.0000000000000018 26.999999999999993 L 14.000000000000002 26.999999999999993 L 14.000000000000002 26.999999999999993 L 25 26.999999999999993 L 25 22.865999999999993 C 25 16.360999999999994 20.182000000000002 10.665999999999993 13.705 10.056999999999993 C 6.273 9.357999999999993 0 15.209999999999994 0 22.499999999999993 L 0 28.072999999999993 C 0 33.443999999999996 3.215 38.437 8.269 40.25599999999999 C 14.872 42.63199999999999 21.817 39.08599999999999 24.165 32.99999999999999 L 24.165 32.99999999999999 L 23.526999999999997 32.99999999999999 C 22.615999999999996 32.99999999999999 21.788999999999998 33.480999999999995 21.288999999999998 34.24199999999999 z M 2 22.5 C 2 16.71 6.71 12 12.5 12 C 18.29 12 23 16.71 23 22.5 L 23 25 L 2 25 z" stroke-linecap="round" />
</g>
</svg>